<svg xmlns="http://www.w3.org/2000/svg" xmlns:xlink="http://www.w3.org/1999/xlink" viewBox="0 0 16 16" version="1.1" width="24" height="24">
<g id="surface1">
<path style=" " d="M 0 3 L 0 4 L 1.265625 4 L 5.578125 12.902344 C 5.605469 12.960938 5.664063 12.996094 5.734375 13 C 5.804688 13 5.859375 12.964844 5.890625 12.90625 L 8.121094 8.882813 L 10.1875 12.90625 C 10.21875 12.964844 10.28125 13 10.347656 13 C 10.417969 13 10.480469 12.960938 10.507813 12.902344 L 14.769531 4 L 16 4 L 16 3 L 13 3 L 13 4 L 13.625 4 L 10.5625 10.671875 L 8.929688 7.382813 L 10.828125 4 L 12 4 L 12 3 L 9 3 L 9 4 L 9.679688 4 L 8.414063 6.28125 L 7.347656 4 L 8 4 L 8 3 L 5 3 L 5 4 L 5.671875 4 L 7.582031 7.789063 L 6 10.683594 L 3.046875 4 L 4 4 L 4 3 Z "/>
</g>
</svg>